<svg version="1.1" xmlns="http://www.w3.org/2000/svg" xmlns:xlink="http://www.w3.org/1999/xlink" width="48" height="48"><defs><linearGradient x1="11.67152" y1="12.79229" x2="63.09651" y2="61.97574" gradientUnits="userSpaceOnUse" id="color-1"><stop offset="0" stop-color="#000000" stop-opacity="0.3"></stop><stop offset="1" stop-color="#000000" stop-opacity="0"></stop></linearGradient><filter id="dropshadow-base"><feColorMatrix type="matrix" values="0 0 0 0 0  0 0 0 0 0  0 0 0 0 0  0 0 0 .8 0"></feColorMatrix> <feOffset dx="0" dy="1"></feOffset> <feGaussianBlur stdDeviation="1"></feGaussianBlur> <feComposite in="SourceGraphic"></feComposite></filter><filter id="dropshadow-banner" x="-10%" y="-10%" width="120%" height="130%"><feColorMatrix type="matrix" values="0 0 0 0 0  0 0 0 0 0  0 0 0 0 0  0 0 0 .4 0"></feColorMatrix> <feOffset dx="0" dy="1"></feOffset> <feGaussianBlur stdDeviation="0.5"></feGaussianBlur> <feComposite in="SourceGraphic"></feComposite></filter></defs><g fill="none" fill-rule="nonzero" stroke="none" stroke-width="none" stroke-linecap="butt" stroke-linejoin="miter" stroke-miterlimit="10" stroke-dasharray="" stroke-dashoffset="0" font-family="none" font-weight="none" font-size="none" text-anchor="none" style="mix-blend-mode: normal"><path d="M2,24c0,-12.15026 9.84974,-22 22,-22c12.15026,0 22,9.84974 22,22c0,12.15026 -9.84974,22 -22,22c-12.15026,0 -22,-9.84974 -22,-22z" id="base 1 5" fill="#7289da" stroke-width="1"></path><path d="M19.51692,12.79229h2.24154l2.24154,2.24154h5.60386l15.43096,15.43096c-2.3126,7.53366 -8.56132,13.34496 -16.34692,15.03467l-15.23996,-15.23996l5.64275,-5.57617l-7.41918,-7.41918v-2.23033h7.8454z" fill="url(#color-1)" stroke-width="1"></path><path d="M24.97507,27.44637l-2.84676,-2.81314l0.03362,-0.03362c1.95014,-2.1743 3.3399,-4.67362 4.15806,-7.31863h3.28386v-2.24715h-7.8454v-2.24154h-2.24154v2.24154h-7.8454v2.23033h12.51901c-0.75652,2.16309 -1.93893,4.2141 -3.55284,6.00733c-1.04232,-1.16 -1.90531,-2.42087 -2.58898,-3.75458h-2.24154c0.81816,1.82686 1.93893,3.55284 3.3399,5.11072l-5.69912,5.63187l1.58589,1.58589l5.60386,-5.60386l3.4856,3.4856zM31.28501,21.75846h-2.24154l-5.04347,13.44925h2.24154l1.26087,-3.36231h5.32366l1.26087,3.36231h2.24154zM28.34299,29.60386l1.82125,-4.85854l1.82125,4.85854z" fill="none" stroke-width="0"></path><path d="M24.12328,29.72714l-3.4856,-3.4856l-5.60386,5.60386l-1.58589,-1.58589l5.69912,-5.63187c-1.40096,-1.55787 -2.52173,-3.28386 -3.3399,-5.11072h2.24154c0.68367,1.33372 1.54666,2.59458 2.58898,3.75458c1.61391,-1.79323 2.79632,-3.84424 3.55284,-6.00733h-12.51901v-2.23033h7.8454v-2.24154h2.24154v2.24154h7.8454v2.24715h-3.28386c-0.81816,2.64502 -2.20792,5.14434 -4.15806,7.31863l-0.03362,0.03362l2.84676,2.81314zM36.32848,35.20771h-2.24154l-1.26087,-3.36231h-5.32366l-1.26087,3.36231h-2.24154l5.04347,-13.44925h2.24154zM31.98549,29.60386l-1.82125,-4.85854l-1.82125,4.85854z" fill="#ffffff" stroke-width="0"></path><path d="M2,24c0,-12.15026 9.84974,-22 22,-22c12.15026,0 22,9.84974 22,22c0,12.15026 -9.84974,22 -22,22c-12.15026,0 -22,-9.84974 -22,-22z" id="base 1 1 1" fill="none" stroke-width="1"></path><g fill="#000000" stroke-width="1" font-family="Roboto, sans-serif" font-weight="400" font-size="14" text-anchor="start"></g><rect x="2" y="2" width="44" height="22" fill="none" stroke-width="1"></rect><path d="M2,24v-22h44v22z" fill="none" stroke-width="1"></path><path d="M2,24v-22h44v22z" fill="none" stroke-width="1"></path><path d="M2,24v-22h44v22z" fill="none" stroke-width="1"></path><path d="M2,24v-22h44v22z" fill="none" stroke-width="1"></path></g></svg>